# xmcd
#
# Track frame offsets:
# 150
# 41835
# 53650
# 68252
# 89740
# 102100
# 108867
# 119047
# 145077
# 157657
# 191312
# 211585
# 227860
# 236275
# 239725
# 243715
# 247420
# 252677
# 257557
# 262457
# 274047
# 285697
# 314662
#
# Disc length: 4289 seconds
#
# Revision: 1
# Processed by: cddbd v1.5.2PL0 Copyright (c) Steve Scherf et al.
# Submitted via: Easy CD Ripper 2.3.10
#
DISCID=5c10bf17
DTITLE=Chicago - Chicago III
DYEAR=1970
DGENRE=Blues
TTITLE0=Sing A Mean Tune Kid - Chicago
TTITLE1=Loneliness Is Just A Word - Chicago
TTITLE2=What Else Can I Say - Chicago
TTITLE3=I Don't Want Your Money - Chicago
TTITLE4=Flight 602 - Chicago
TTITLE5=Motorboat To Mars - Chicago
TTITLE6=Free - Chicago
TTITLE7=Free Country - Chicago
TTITLE8=At The Sunrise - Chicago
TTITLE9=Happy 'Cause I'm Going Home - Chicago
TTITLE10=Mother - Chicago
TTITLE11=Lowdown - Chicago
TTITLE12=A Hard Risin' Morning Without Breakfast - Chicago
TTITLE13=Off To Work - Chicago
TTITLE14=Fallin' Out - Chicago
TTITLE15=Dreamin' Home - Chicago
TTITLE16=Morning Blues Again - Chicago
TTITLE17=When All The Laughter Dies In Sorrow - Chicago
TTITLE18=Canon - Chicago
TTITLE19=Once Upon A Time ... - Chicago
TTITLE20=Progress? - Chicago
TTITLE21=The Approaching Storm - Chicago
TTITLE22=Man Vs. Man: The End - Chicago
EXTD=
EXTT0=
EXTT1=
EXTT2=
EXTT3=
EXTT4=
EXTT5=
EXTT6=
EXTT7=
EXTT8=
EXTT9=
EXTT10=
EXTT11=
EXTT12=
EXTT13=
EXTT14=
EXTT15=
EXTT16=
EXTT17=
EXTT18=
EXTT19=
EXTT20=
EXTT21=
EXTT22=
PLAYORDER=
